<svg width="20" height="20" viewBox="0 0 20 20" fill="none" xmlns="http://www.w3.org/2000/svg">
<path d="M18.6363 19.697C18.9291 19.9899 19.404 19.9899 19.6969 19.697C19.9898 19.4041 19.9898 18.9292 19.6969 18.6363L18.6363 19.697ZM15.1813 8.38233C15.1813 12.1373 12.1373 15.1814 8.38227 15.1814V16.6814C12.9657 16.6814 16.6813 12.9658 16.6813 8.38233H15.1813ZM8.38227 15.1814C4.62728 15.1814 1.58325 12.1373 1.58325 8.38233H0.083252C0.083252 12.9658 3.79885 16.6814 8.38227 16.6814V15.1814ZM1.58325 8.38233C1.58325 4.62734 4.62728 1.58331 8.38227 1.58331V0.083313C3.79885 0.083313 0.083252 3.79891 0.083252 8.38233H1.58325ZM8.38227 1.58331C12.1373 1.58331 15.1813 4.62734 15.1813 8.38233H16.6813C16.6813 3.79891 12.9657 0.083313 8.38227 0.083313V1.58331ZM13.2441 14.3048L18.6363 19.697L19.6969 18.6363L14.3048 13.2442L13.2441 14.3048Z" fill="#5F6D7E"/>
</svg>
